<mxfile host="app.diagrams.net" modified="2023-07-04T15:06:13.686Z" agent="Mozilla/5.0 (Windows NT 10.0; Win64; x64) AppleWebKit/537.36 (KHTML, like Gecko) Chrome/114.0.0.0 Safari/537.36" etag="Q1XzZ-XFE_27WUaK3rUT" version="21.5.2" type="device">
  <diagram name="Page-1" id="09DajQlsoDGaR5UKHQZs">
    <mxGraphModel dx="993" dy="644" grid="1" gridSize="10" guides="1" tooltips="1" connect="1" arrows="1" fold="1" page="1" pageScale="1" pageWidth="850" pageHeight="1100" math="0" shadow="0">
      <root>
        <mxCell id="0" />
        <mxCell id="1" parent="0" />
        <mxCell id="JQ7dYN5Y3wBBPKodbZUG-1" value="Ward" style="rounded=0;whiteSpace=wrap;html=1;" parent="1" vertex="1">
          <mxGeometry x="40" y="120" width="190" height="110" as="geometry" />
        </mxCell>
        <mxCell id="JQ7dYN5Y3wBBPKodbZUG-2" value="" style="endArrow=none;html=1;rounded=0;" parent="1" edge="1">
          <mxGeometry width="50" height="50" relative="1" as="geometry">
            <mxPoint x="134.5281520706253" y="63.05313238289784" as="sourcePoint" />
            <mxPoint x="160" y="70" as="targetPoint" />
          </mxGeometry>
        </mxCell>
        <mxCell id="JQ7dYN5Y3wBBPKodbZUG-3" value="&lt;u&gt;RID&lt;/u&gt;" style="ellipse;whiteSpace=wrap;html=1;" parent="1" vertex="1">
          <mxGeometry x="150" y="45" width="40" height="25" as="geometry" />
        </mxCell>
        <mxCell id="JQ7dYN5Y3wBBPKodbZUG-4" value="" style="endArrow=none;html=1;rounded=0;" parent="1" edge="1">
          <mxGeometry width="50" height="50" relative="1" as="geometry">
            <mxPoint x="220" y="120" as="sourcePoint" />
            <mxPoint x="270" y="70" as="targetPoint" />
          </mxGeometry>
        </mxCell>
        <mxCell id="JQ7dYN5Y3wBBPKodbZUG-5" value="Name" style="ellipse;whiteSpace=wrap;html=1;" parent="1" vertex="1">
          <mxGeometry x="270" y="40" width="70" height="40" as="geometry" />
        </mxCell>
        <mxCell id="JQ7dYN5Y3wBBPKodbZUG-8" value="" style="endArrow=none;html=1;rounded=0;" parent="1" target="JQ7dYN5Y3wBBPKodbZUG-9" edge="1">
          <mxGeometry width="50" height="50" relative="1" as="geometry">
            <mxPoint x="170" y="120" as="sourcePoint" />
            <mxPoint x="220" y="70" as="targetPoint" />
          </mxGeometry>
        </mxCell>
        <mxCell id="JQ7dYN5Y3wBBPKodbZUG-9" value="Basic Information" style="ellipse;whiteSpace=wrap;html=1;" parent="1" vertex="1">
          <mxGeometry x="200" y="40" width="60" height="30" as="geometry" />
        </mxCell>
        <mxCell id="JQ7dYN5Y3wBBPKodbZUG-10" value="" style="endArrow=none;html=1;rounded=0;entryX=0.294;entryY=0.975;entryDx=0;entryDy=0;entryPerimeter=0;" parent="1" target="JQ7dYN5Y3wBBPKodbZUG-65" edge="1">
          <mxGeometry width="50" height="50" relative="1" as="geometry">
            <mxPoint x="50" y="120" as="sourcePoint" />
            <mxPoint x="100" y="70" as="targetPoint" />
          </mxGeometry>
        </mxCell>
        <mxCell id="JQ7dYN5Y3wBBPKodbZUG-12" value="Producer" style="rounded=0;whiteSpace=wrap;html=1;" parent="1" vertex="1">
          <mxGeometry x="560" y="120" width="190" height="110" as="geometry" />
        </mxCell>
        <mxCell id="JQ7dYN5Y3wBBPKodbZUG-13" value="" style="endArrow=none;html=1;rounded=0;" parent="1" edge="1">
          <mxGeometry width="50" height="50" relative="1" as="geometry">
            <mxPoint x="610" y="120" as="sourcePoint" />
            <mxPoint x="660" y="70" as="targetPoint" />
          </mxGeometry>
        </mxCell>
        <mxCell id="JQ7dYN5Y3wBBPKodbZUG-14" value="&lt;u&gt;PID&lt;/u&gt;" style="ellipse;whiteSpace=wrap;html=1;strokeColor=default;" parent="1" vertex="1">
          <mxGeometry x="660" y="45" width="80" height="37.5" as="geometry" />
        </mxCell>
        <mxCell id="JQ7dYN5Y3wBBPKodbZUG-15" value="Company Name" style="ellipse;whiteSpace=wrap;html=1;" parent="1" vertex="1">
          <mxGeometry x="750" y="41.25" width="100" height="45" as="geometry" />
        </mxCell>
        <mxCell id="JQ7dYN5Y3wBBPKodbZUG-16" value="" style="endArrow=none;html=1;rounded=0;" parent="1" edge="1">
          <mxGeometry width="50" height="50" relative="1" as="geometry">
            <mxPoint x="700" y="120" as="sourcePoint" />
            <mxPoint x="750" y="70" as="targetPoint" />
          </mxGeometry>
        </mxCell>
        <mxCell id="JQ7dYN5Y3wBBPKodbZUG-18" value="Country" style="ellipse;whiteSpace=wrap;html=1;" parent="1" vertex="1">
          <mxGeometry x="480" y="30" width="70" height="40" as="geometry" />
        </mxCell>
        <mxCell id="JQ7dYN5Y3wBBPKodbZUG-19" value="" style="endArrow=none;html=1;rounded=0;" parent="1" edge="1">
          <mxGeometry width="50" height="50" relative="1" as="geometry">
            <mxPoint x="610" y="120" as="sourcePoint" />
            <mxPoint x="550" y="60" as="targetPoint" />
          </mxGeometry>
        </mxCell>
        <mxCell id="JQ7dYN5Y3wBBPKodbZUG-20" value="" style="endArrow=none;html=1;rounded=0;" parent="1" target="JQ7dYN5Y3wBBPKodbZUG-21" edge="1">
          <mxGeometry width="50" height="50" relative="1" as="geometry">
            <mxPoint x="230" y="170" as="sourcePoint" />
            <mxPoint x="320" y="170" as="targetPoint" />
          </mxGeometry>
        </mxCell>
        <mxCell id="JQ7dYN5Y3wBBPKodbZUG-21" value="Produce" style="rhombus;whiteSpace=wrap;html=1;" parent="1" vertex="1">
          <mxGeometry x="360" y="130" width="80" height="80" as="geometry" />
        </mxCell>
        <mxCell id="JQ7dYN5Y3wBBPKodbZUG-22" value="" style="endArrow=none;html=1;rounded=0;entryX=0;entryY=0.5;entryDx=0;entryDy=0;" parent="1" target="JQ7dYN5Y3wBBPKodbZUG-12" edge="1">
          <mxGeometry width="50" height="50" relative="1" as="geometry">
            <mxPoint x="440" y="170" as="sourcePoint" />
            <mxPoint x="550" y="170" as="targetPoint" />
          </mxGeometry>
        </mxCell>
        <mxCell id="JQ7dYN5Y3wBBPKodbZUG-23" value="M" style="text;html=1;align=center;verticalAlign=middle;resizable=0;points=[];autosize=1;strokeColor=none;fillColor=none;" parent="1" vertex="1">
          <mxGeometry x="230" y="140" width="30" height="30" as="geometry" />
        </mxCell>
        <mxCell id="JQ7dYN5Y3wBBPKodbZUG-24" value="1" style="text;html=1;align=center;verticalAlign=middle;resizable=0;points=[];autosize=1;strokeColor=none;fillColor=none;" parent="1" vertex="1">
          <mxGeometry x="530" y="140" width="30" height="30" as="geometry" />
        </mxCell>
        <mxCell id="JQ7dYN5Y3wBBPKodbZUG-25" value="Tv Channel" style="rounded=0;whiteSpace=wrap;html=1;" parent="1" vertex="1">
          <mxGeometry x="40" y="440" width="200" height="120" as="geometry" />
        </mxCell>
        <mxCell id="JQ7dYN5Y3wBBPKodbZUG-27" value="" style="endArrow=none;html=1;rounded=0;" parent="1" edge="1">
          <mxGeometry width="50" height="50" relative="1" as="geometry">
            <mxPoint x="160" y="610" as="sourcePoint" />
            <mxPoint x="210" y="560" as="targetPoint" />
          </mxGeometry>
        </mxCell>
        <mxCell id="JQ7dYN5Y3wBBPKodbZUG-28" value="&lt;u&gt;TID&lt;/u&gt;" style="ellipse;whiteSpace=wrap;html=1;" parent="1" vertex="1">
          <mxGeometry x="260" y="625" width="40" height="25" as="geometry" />
        </mxCell>
        <mxCell id="JQ7dYN5Y3wBBPKodbZUG-30" value="" style="endArrow=none;html=1;rounded=0;" parent="1" edge="1">
          <mxGeometry width="50" height="50" relative="1" as="geometry">
            <mxPoint x="40" y="610" as="sourcePoint" />
            <mxPoint x="90" y="560" as="targetPoint" />
          </mxGeometry>
        </mxCell>
        <mxCell id="JQ7dYN5Y3wBBPKodbZUG-31" value="TName" style="ellipse;whiteSpace=wrap;html=1;" parent="1" vertex="1">
          <mxGeometry x="140" y="610" width="70" height="40" as="geometry" />
        </mxCell>
        <mxCell id="JQ7dYN5Y3wBBPKodbZUG-32" value="" style="endArrow=none;html=1;rounded=0;" parent="1" edge="1">
          <mxGeometry width="50" height="50" relative="1" as="geometry">
            <mxPoint x="100" y="610" as="sourcePoint" />
            <mxPoint x="150" y="560" as="targetPoint" />
          </mxGeometry>
        </mxCell>
        <mxCell id="JQ7dYN5Y3wBBPKodbZUG-33" value="StartYear" style="ellipse;whiteSpace=wrap;html=1;" parent="1" vertex="1">
          <mxGeometry x="70" y="610" width="70" height="45" as="geometry" />
        </mxCell>
        <mxCell id="JQ7dYN5Y3wBBPKodbZUG-38" value="" style="endArrow=none;html=1;rounded=0;" parent="1" edge="1">
          <mxGeometry width="50" height="50" relative="1" as="geometry">
            <mxPoint x="275" y="620" as="sourcePoint" />
            <mxPoint x="215" y="560" as="targetPoint" />
          </mxGeometry>
        </mxCell>
        <mxCell id="JQ7dYN5Y3wBBPKodbZUG-40" value="Head Office" style="ellipse;whiteSpace=wrap;html=1;" parent="1" vertex="1">
          <mxGeometry y="610" width="70" height="40" as="geometry" />
        </mxCell>
        <mxCell id="JQ7dYN5Y3wBBPKodbZUG-44" value="Brodcast" style="rhombus;whiteSpace=wrap;html=1;" parent="1" vertex="1">
          <mxGeometry x="95" y="300" width="80" height="80" as="geometry" />
        </mxCell>
        <mxCell id="JQ7dYN5Y3wBBPKodbZUG-46" value="" style="endArrow=none;html=1;rounded=0;entryX=0.5;entryY=1;entryDx=0;entryDy=0;" parent="1" target="JQ7dYN5Y3wBBPKodbZUG-1" edge="1">
          <mxGeometry width="50" height="50" relative="1" as="geometry">
            <mxPoint x="134.44" y="300" as="sourcePoint" />
            <mxPoint x="134.44" y="240" as="targetPoint" />
          </mxGeometry>
        </mxCell>
        <mxCell id="JQ7dYN5Y3wBBPKodbZUG-47" value="" style="endArrow=none;html=1;rounded=0;entryX=0.5;entryY=1;entryDx=0;entryDy=0;exitX=0.466;exitY=0.004;exitDx=0;exitDy=0;exitPerimeter=0;" parent="1" source="JQ7dYN5Y3wBBPKodbZUG-25" edge="1">
          <mxGeometry width="50" height="50" relative="1" as="geometry">
            <mxPoint x="135" y="450" as="sourcePoint" />
            <mxPoint x="135" y="380" as="targetPoint" />
          </mxGeometry>
        </mxCell>
        <mxCell id="JQ7dYN5Y3wBBPKodbZUG-48" value="M" style="text;html=1;align=center;verticalAlign=middle;resizable=0;points=[];autosize=1;strokeColor=none;fillColor=none;" parent="1" vertex="1">
          <mxGeometry x="140" y="238" width="30" height="30" as="geometry" />
        </mxCell>
        <mxCell id="JQ7dYN5Y3wBBPKodbZUG-49" value="1" style="text;html=1;align=center;verticalAlign=middle;resizable=0;points=[];autosize=1;strokeColor=none;fillColor=none;" parent="1" vertex="1">
          <mxGeometry x="125" y="408" width="30" height="30" as="geometry" />
        </mxCell>
        <mxCell id="JQ7dYN5Y3wBBPKodbZUG-50" value="User" style="rounded=0;whiteSpace=wrap;html=1;" parent="1" vertex="1">
          <mxGeometry x="560" y="442" width="200" height="120" as="geometry" />
        </mxCell>
        <mxCell id="JQ7dYN5Y3wBBPKodbZUG-51" value="" style="endArrow=none;html=1;rounded=0;" parent="1" edge="1">
          <mxGeometry width="50" height="50" relative="1" as="geometry">
            <mxPoint x="680" y="612" as="sourcePoint" />
            <mxPoint x="730" y="562" as="targetPoint" />
          </mxGeometry>
        </mxCell>
        <mxCell id="JQ7dYN5Y3wBBPKodbZUG-52" value="&lt;u&gt;UID&lt;/u&gt;" style="ellipse;whiteSpace=wrap;html=1;" parent="1" vertex="1">
          <mxGeometry x="780" y="627" width="40" height="25" as="geometry" />
        </mxCell>
        <mxCell id="JQ7dYN5Y3wBBPKodbZUG-53" value="" style="endArrow=none;html=1;rounded=0;" parent="1" edge="1">
          <mxGeometry width="50" height="50" relative="1" as="geometry">
            <mxPoint x="560" y="612" as="sourcePoint" />
            <mxPoint x="610" y="562" as="targetPoint" />
          </mxGeometry>
        </mxCell>
        <mxCell id="JQ7dYN5Y3wBBPKodbZUG-54" value="username" style="ellipse;whiteSpace=wrap;html=1;" parent="1" vertex="1">
          <mxGeometry x="660" y="612" width="70" height="40" as="geometry" />
        </mxCell>
        <mxCell id="JQ7dYN5Y3wBBPKodbZUG-55" value="" style="endArrow=none;html=1;rounded=0;" parent="1" edge="1">
          <mxGeometry width="50" height="50" relative="1" as="geometry">
            <mxPoint x="620" y="612" as="sourcePoint" />
            <mxPoint x="670" y="562" as="targetPoint" />
          </mxGeometry>
        </mxCell>
        <mxCell id="JQ7dYN5Y3wBBPKodbZUG-56" value="password" style="ellipse;whiteSpace=wrap;html=1;" parent="1" vertex="1">
          <mxGeometry x="590" y="612" width="70" height="45" as="geometry" />
        </mxCell>
        <mxCell id="JQ7dYN5Y3wBBPKodbZUG-57" value="" style="endArrow=none;html=1;rounded=0;" parent="1" edge="1">
          <mxGeometry width="50" height="50" relative="1" as="geometry">
            <mxPoint x="795" y="622" as="sourcePoint" />
            <mxPoint x="735" y="562" as="targetPoint" />
          </mxGeometry>
        </mxCell>
        <mxCell id="JQ7dYN5Y3wBBPKodbZUG-58" value="Age" style="ellipse;whiteSpace=wrap;html=1;" parent="1" vertex="1">
          <mxGeometry x="530" y="617.5" width="40" height="25" as="geometry" />
        </mxCell>
        <mxCell id="JQ7dYN5Y3wBBPKodbZUG-59" value="" style="endArrow=none;html=1;rounded=0;edgeStyle=elbowEdgeStyle;" parent="1" target="JQ7dYN5Y3wBBPKodbZUG-60" edge="1">
          <mxGeometry width="50" height="50" relative="1" as="geometry">
            <mxPoint x="230" y="230" as="sourcePoint" />
            <mxPoint x="360" y="340" as="targetPoint" />
          </mxGeometry>
        </mxCell>
        <mxCell id="JQ7dYN5Y3wBBPKodbZUG-60" value="Rate" style="rhombus;whiteSpace=wrap;html=1;" parent="1" vertex="1">
          <mxGeometry x="345" y="300" width="80" height="80" as="geometry" />
        </mxCell>
        <mxCell id="JQ7dYN5Y3wBBPKodbZUG-62" value="" style="endArrow=none;html=1;rounded=0;edgeStyle=orthogonalEdgeStyle;entryX=0.05;entryY=-0.017;entryDx=0;entryDy=0;entryPerimeter=0;" parent="1" target="JQ7dYN5Y3wBBPKodbZUG-50" edge="1">
          <mxGeometry width="50" height="50" relative="1" as="geometry">
            <mxPoint x="430" y="340" as="sourcePoint" />
            <mxPoint x="570" y="430" as="targetPoint" />
          </mxGeometry>
        </mxCell>
        <mxCell id="JQ7dYN5Y3wBBPKodbZUG-63" value="1" style="text;html=1;align=center;verticalAlign=middle;resizable=0;points=[];autosize=1;strokeColor=none;fillColor=none;" parent="1" vertex="1">
          <mxGeometry x="285" y="268" width="30" height="30" as="geometry" />
        </mxCell>
        <mxCell id="JQ7dYN5Y3wBBPKodbZUG-64" value="M" style="text;html=1;align=center;verticalAlign=middle;resizable=0;points=[];autosize=1;strokeColor=none;fillColor=none;" parent="1" vertex="1">
          <mxGeometry x="525" y="388" width="30" height="30" as="geometry" />
        </mxCell>
        <mxCell id="JQ7dYN5Y3wBBPKodbZUG-65" value="" style="ellipse;whiteSpace=wrap;html=1;" parent="1" vertex="1">
          <mxGeometry x="60" y="27.5" width="90" height="60" as="geometry" />
        </mxCell>
        <mxCell id="JQ7dYN5Y3wBBPKodbZUG-67" value="" style="endArrow=none;html=1;rounded=0;" parent="1" edge="1">
          <mxGeometry width="50" height="50" relative="1" as="geometry">
            <mxPoint x="110" y="120" as="sourcePoint" />
            <mxPoint x="106.15321965000862" y="69.99185545011346" as="targetPoint" />
          </mxGeometry>
        </mxCell>
        <mxCell id="kuofTMLl-7quZmhJa9c2-1" value="Participant&#39;s Name" style="ellipse;whiteSpace=wrap;html=1;" parent="1" vertex="1">
          <mxGeometry x="65" y="31.25" width="80" height="52.5" as="geometry" />
        </mxCell>
      </root>
    </mxGraphModel>
  </diagram>
</mxfile>
